<svg width="70" height="70" viewBox="0 0 70 70" fill="none" xmlns="http://www.w3.org/2000/svg">
<path d="M5.83301 17.4997C5.83301 16.7261 6.1403 15.9843 6.68728 15.4373C7.23426 14.8903 7.97613 14.583 8.74967 14.583H61.2497C62.0232 14.583 62.7651 14.8903 63.3121 15.4373C63.8591 15.9843 64.1663 16.7261 64.1663 17.4997C64.1663 18.2732 63.8591 19.0151 63.3121 19.5621C62.7651 20.1091 62.0232 20.4163 61.2497 20.4163H8.74967C7.97613 20.4163 7.23426 20.1091 6.68728 19.5621C6.1403 19.0151 5.83301 18.2732 5.83301 17.4997ZM5.83301 35.093C5.83301 34.3195 6.1403 33.5776 6.68728 33.0306C7.23426 32.4836 7.97613 32.1763 8.74967 32.1763H61.2497C62.0232 32.1763 62.7651 32.4836 63.3121 33.0306C63.8591 33.5776 64.1663 34.3195 64.1663 35.093C64.1663 35.8666 63.8591 36.6084 63.3121 37.1554C62.7651 37.7024 62.0232 38.0097 61.2497 38.0097H8.74967C7.97613 38.0097 7.23426 37.7024 6.68728 37.1554C6.1403 36.6084 5.83301 35.8666 5.83301 35.093ZM8.74967 49.7697C7.97613 49.7697 7.23426 50.077 6.68728 50.624C6.1403 51.1709 5.83301 51.9128 5.83301 52.6863C5.83301 53.4599 6.1403 54.2018 6.68728 54.7487C7.23426 55.2957 7.97613 55.603 8.74967 55.603H61.2497C62.0232 55.603 62.7651 55.2957 63.3121 54.7487C63.8591 54.2018 64.1663 53.4599 64.1663 52.6863C64.1663 51.9128 63.8591 51.1709 63.3121 50.624C62.7651 50.077 62.0232 49.7697 61.2497 49.7697H8.74967Z" fill="white"/>
</svg>
