<svg width="70" height="70" viewBox="0 0 70 70" fill="none" xmlns="http://www.w3.org/2000/svg">
<path d="M48.125 37.1878C57.1375 28.992 65.625 21.3212 65.625 14.7295C65.625 9.33366 61.3958 5.10449 56 5.10449C52.9667 5.10449 50.0208 6.53366 48.125 8.75033C46.2 6.53366 43.2833 5.10449 40.25 5.10449C34.8542 5.10449 30.625 9.33366 30.625 14.7295C30.625 21.3212 39.1125 28.992 48.125 37.1878ZM40.25 10.9378C41.5333 10.9378 42.8458 11.5503 43.6917 12.542L48.125 17.7628L52.5583 12.542C53.4042 11.5503 54.7167 10.9378 56 10.9378C58.1583 10.9378 59.7917 12.5712 59.7917 14.7295C59.7917 17.9962 53.8417 23.9753 48.125 29.2837C42.4083 23.9753 36.4583 17.967 36.4583 14.7295C36.4583 12.5712 38.0917 10.9378 40.25 10.9378Z" fill="white"/>
<path d="M56.875 45.9378H51.0417C51.0417 42.4378 48.8542 39.2878 45.5875 38.0628L27.6208 31.3545H4.375V63.4378H21.875V59.2378L42.2917 64.8962L65.625 57.6045V54.6878C65.625 49.8462 61.7167 45.9378 56.875 45.9378ZM10.2083 57.6045V37.1878H16.0417V57.6045H10.2083ZM42.2042 58.8003L21.875 53.1712V37.1878H26.5708L43.5458 43.517C44.5375 43.8962 45.2083 44.8587 45.2083 45.9378C45.2083 45.9378 39.4042 45.792 38.5 45.5003L31.5583 43.1962L29.7208 48.7378L36.6625 51.042C38.15 51.5378 39.6958 51.8003 41.2708 51.8003H56.875C58.0125 51.8003 59.0333 52.4712 59.5 53.4337L42.2042 58.8003Z" fill="white"/>
</svg>
